<svg id="visual" viewBox="0 0 900 600" width="900" height="600" xmlns="http://www.w3.org/2000/svg" xmlns:xlink="http://www.w3.org/1999/xlink" version="1.1"><path d="M0 151L13.7 151C27.3 151 54.7 151 82 137C109.3 123 136.7 95 163.8 86C191 77 218 87 245.2 94C272.3 101 299.7 105 327 100C354.3 95 381.7 81 409 82C436.3 83 463.7 99 491 114C518.3 129 545.7 143 573 138C600.3 133 627.7 109 654.8 93C682 77 709 69 736.2 76C763.3 83 790.7 105 818 120C845.3 135 872.7 143 886.3 147L900 151L900 0L886.3 0C872.7 0 845.3 0 818 0C790.7 0 763.3 0 736.2 0C709 0 682 0 654.8 0C627.7 0 600.3 0 573 0C545.7 0 518.3 0 491 0C463.7 0 436.3 0 409 0C381.7 0 354.3 0 327 0C299.7 0 272.3 0 245.2 0C218 0 191 0 163.8 0C136.7 0 109.3 0 82 0C54.7 0 27.3 0 13.7 0L0 0Z" fill="#6198ff"></path><path d="M0 271L13.7 264C27.3 257 54.7 243 82 258C109.3 273 136.7 317 163.8 335C191 353 218 345 245.2 321C272.3 297 299.7 257 327 233C354.3 209 381.7 201 409 207C436.3 213 463.7 233 491 245C518.3 257 545.7 261 573 263C600.3 265 627.7 265 654.8 252C682 239 709 213 736.2 226C763.3 239 790.7 291 818 313C845.3 335 872.7 327 886.3 323L900 319L900 149L886.3 145C872.7 141 845.3 133 818 118C790.7 103 763.3 81 736.2 74C709 67 682 75 654.8 91C627.7 107 600.3 131 573 136C545.7 141 518.3 127 491 112C463.7 97 436.3 81 409 80C381.7 79 354.3 93 327 98C299.7 103 272.3 99 245.2 92C218 85 191 75 163.8 84C136.7 93 109.3 121 82 135C54.7 149 27.3 149 13.7 149L0 149Z" fill="#3c80ff"></path><path d="M0 403L13.7 386C27.3 369 54.7 335 82 339C109.3 343 136.7 385 163.8 406C191 427 218 427 245.2 412C272.3 397 299.7 367 327 339C354.3 311 381.7 285 409 286C436.3 287 463.7 315 491 336C518.3 357 545.7 371 573 371C600.3 371 627.7 357 654.8 335C682 313 709 283 736.2 302C763.3 321 790.7 389 818 418C845.3 447 872.7 437 886.3 432L900 427L900 317L886.3 321C872.7 325 845.3 333 818 311C790.7 289 763.3 237 736.2 224C709 211 682 237 654.8 250C627.7 263 600.3 263 573 261C545.7 259 518.3 255 491 243C463.7 231 436.3 211 409 205C381.7 199 354.3 207 327 231C299.7 255 272.3 295 245.2 319C218 343 191 351 163.8 333C136.7 315 109.3 271 82 256C54.7 241 27.3 255 13.7 262L0 269Z" fill="#0066ff"></path><path d="M0 445L13.7 434C27.3 423 54.7 401 82 406C109.3 411 136.7 443 163.8 457C191 471 218 467 245.2 456C272.3 445 299.7 427 327 410C354.3 393 381.7 377 409 377C436.3 377 463.7 393 491 404C518.3 415 545.7 421 573 427C600.3 433 627.7 439 654.8 423C682 407 709 369 736.2 378C763.3 387 790.7 443 818 469C845.3 495 872.7 491 886.3 489L900 487L900 425L886.3 430C872.7 435 845.3 445 818 416C790.7 387 763.3 319 736.2 300C709 281 682 311 654.8 333C627.7 355 600.3 369 573 369C545.7 369 518.3 355 491 334C463.7 313 436.3 285 409 284C381.7 283 354.3 309 327 337C299.7 365 272.3 395 245.2 410C218 425 191 425 163.8 404C136.7 383 109.3 341 82 337C54.7 333 27.3 367 13.7 384L0 401Z" fill="#0059dd"></path><path d="M0 601L13.7 601C27.3 601 54.7 601 82 601C109.3 601 136.7 601 163.8 601C191 601 218 601 245.2 601C272.3 601 299.7 601 327 601C354.3 601 381.7 601 409 601C436.3 601 463.7 601 491 601C518.3 601 545.7 601 573 601C600.3 601 627.7 601 654.8 601C682 601 709 601 736.2 601C763.3 601 790.7 601 818 601C845.3 601 872.7 601 886.3 601L900 601L900 485L886.3 487C872.7 489 845.3 493 818 467C790.7 441 763.3 385 736.2 376C709 367 682 405 654.8 421C627.7 437 600.3 431 573 425C545.7 419 518.3 413 491 402C463.7 391 436.3 375 409 375C381.7 375 354.3 391 327 408C299.7 425 272.3 443 245.2 454C218 465 191 469 163.8 455C136.7 441 109.3 409 82 404C54.7 399 27.3 421 13.7 432L0 443Z" fill="#004cbb"></path></svg>